# xmcd
#
# Track frame offsets:
#	150
#	22088
#	40308
#	54819
#	70486
#	84827
#	102641
#	113173
#	130163
#	153261
#	163227
#	182547
#	201360
#	225961
#	240656
#	258775
#	275717
#	294838
#
# Disc length: 4333 seconds
#
# Revision: 1
# Processed by: cddbd v1.4PL0 Copyright (c) Steve Scherf et al.
# Submitted via: audiograbber 1.81.03
#
DISCID=f310eb12
DTITLE=Fjellis - Till och från en blå man [CD1)
DYEAR=1900
DGENRE=Blues
TTITLE0=Nisse Hellberg - Låt kvasten gå
TTITLE1=Sven Zetterberg - Living On Borrowed Time
TTITLE2=Monica Törnell - Pilträd gråt för mig
TTITLE3=Louise Hoffsten - God Don't Ever Change
TTITLE4=Totta Näslund - Prodigal Son
TTITLE5=The Mescaleros - I Remember the Good Times
TTITLE6=Jalle Lorensson and The Mescaleros - Lucky Dogs
TTITLE7=Eddie Nyström - Mother Mercy
TTITLE8=Karl Kanga - Louisiana Rain
TTITLE9=Mats Ronander - Hold On
TTITLE10=Hidden Charms - Kiss Away
TTITLE11=Ulf Lundell - Bättre tider
TTITLE12=Peps Persson - Movin' Down the River Rhine
TTITLE13=Rolf Alm - Eunice Two Step
TTITLE14=Eric Bibb - Don't Ever Let Nobody Drag Your Spirit Down
TTITLE15=Diz Watson - Lefthand In Fearlessimo
TTITLE16=Buckaroos - A Good Man Has Gone Home
TTITLE17=Mikael Wiehe - Pojken och äventyret
EXTD=
EXTT0=
EXTT1=
EXTT2=
EXTT3=
EXTT4=
EXTT5=
EXTT6=
EXTT7=
EXTT8=
EXTT9=
EXTT10=
EXTT11=
EXTT12=
EXTT13=
EXTT14=
EXTT15=
EXTT16=
EXTT17=
PLAYORDER=
